<svg xmlns:xlink="http://www.w3.org/1999/xlink" xmlns="http://www.w3.org/2000/svg" class="privilege__icon" width="74"  height="74" ><defs><symbol fill="none" viewBox="0 0 74 74" id="icon_master">
  <g clip-path="url(#icon_master_clip0)">
    <circle cx="36.82" cy="42" r="32" fill="#FCCF8A"></circle>
    <path d="M49.32 18.5h-24l-1.5 2.5-1.5 1.5c-.4.4-.5 3.833-.5 5.5l3.5 2.5.5 4.5 3 3.5-1 6.5-2.5 4 11.18 4.5 12.5-4-4.68-4.5.5-5 1-2.5 3.5-6.5 2.5-5-2-3-.5-4.5z" fill="#fff"></path>
    <path fill="#FCCF8A" d="M7 60h60v14H7z"></path>
    <path d="M69.752 55.73c-1.815-2.827-6.378-4.598-11.66-6.647-1.408-.546-2.864-1.11-4.316-1.716-4.15-1.73-6.288-2.743-7.27-3.236l-.044-4.815c.842-.928 2.323-3.063 3.047-7.116 2.02-.699 3.36-3.462 3.457-5.063.01-.16.213-3.932-1.41-5.654a2.858 2.858 0 00-.538-.45c.03-.245.056-.469.082-.697h1.554V15.5H51.42a9.173 9.173 0 00-.03-.45c-.267-2.742-1.678-5.52-3.974-7.7L44.96 9.137l-3.019 2.197 1.866-3.054 1.558-2.549c-.102-.066-.21-.125-.313-.189-2.187-2.219-5.023-3.824-8.389-3.824-3.347 0-6.18 1.581-8.362 3.781-.338.208-.665.425-.979.655l.148.243 3.017 4.937-4.345-3.162-.622-.452c-2.069 2.12-3.334 4.744-3.583 7.332a9.22 9.22 0 00-.029.448h-1.754v4.834h2.071c.026.23.052.453.082.697a2.91 2.91 0 00-.542.455c-1.629 1.734-1.405 5.615-1.403 5.65.096 1.601 1.437 4.364 3.457 5.063.723 4.053 2.205 6.188 3.047 7.116l-.048 4.815c-.982.494-3.12 1.507-7.27 3.236a189.004 189.004 0 01-4.325 1.72c-5.279 2.05-9.838 3.817-11.653 6.645-1.938 3.023-1.575 14.696-1.483 17.005l.058 1.44h6.851v-6.51H64.33v6.51h6.85l.058-1.439c.09-2.309.455-13.983-1.486-17.007zm-56.84 8.937v-11.44a184.92 184.92 0 013.395-1.343c1.433-.556 2.915-1.13 4.394-1.747 1.021-.426 1.912-.805 2.71-1.149v15.68h-10.5zM26.99 47.383c1.473-.694 2.008-1.008 2.1-1.063l.711-.434.07-7.18-.017-.73-.547-.456c-.02-.017-2.034-1.749-2.697-6.896l-.115-1.743-1.682.486c-.459-.115-1.408-1.574-1.458-2.413-.079-1.258.202-2.785.506-3.294l1.864.386-.276-2.093a155.89 155.89 0 01-.205-1.618h2.615l.502 1.041h16.71l.501-1.04h2.508c-.065.55-.135 1.097-.203 1.62l-.319 2.095 1.901-.396c.303.505.587 2.04.513 3.302-.049.812-.947 2.214-1.419 2.397l-1.612-.467-.224 1.736c-.663 5.146-2.676 6.88-2.676 6.88l-.592.454.072 7.93.713.433c.075.046.448.266 1.401.73-1.48 1.18-5.02 3.617-8.975 3.617-3.609 0-7.57-2.033-9.67-3.284zm22.921 17.284v-15.68c.798.344 1.688.723 2.711 1.15a196.1 196.1 0 004.384 1.742c1.167.453 2.317.9 3.405 1.346v11.441h-10.5v.001z" fill="#2364AF"></path>
    <path d="M49.911 71.177v1.5h10.5v-3.302h-10.5v1.802zM12.911 71.177v1.5h10.5v-3.302h-10.5v1.802z" fill="#2364AF"></path>
  </g>
  <defs>
    
  </defs>
</symbol></defs>
                            <use xlink:href="#icon_master"></use>
                        </svg>