<svg xmlns:xlink="http://www.w3.org/1999/xlink" xmlns="http://www.w3.org/2000/svg" class="privilege__icon" width="74"  height="74" ><defs><symbol fill="none" viewBox="0 0 74 74" id="icon_gear">
  <g clip-path="url(#icon_gear_clip0)">
    <circle cx="36.82" cy="42" r="32" fill="#FCCF8A"></circle>
    <path fill-rule="evenodd" clip-rule="evenodd" d="M38 30c-3.186 0-6 2.712-6 6.348h-8C24 28.554 30.14 22 38 22s14 6.554 14 14.348c0 3.47-1.208 6.677-3.234 9.173l-6.211-5.042A6.523 6.523 0 0044 36.348C44 32.712 41.186 30 38 30z" fill="#fff"></path>
    <path fill-rule="evenodd" clip-rule="evenodd" d="M10.1 57.971a6.034 6.034 0 012.915-.744 6.03 6.03 0 014.293 1.778 6.029 6.029 0 011.777 4.292 6.03 6.03 0 01-1.777 4.292 6.03 6.03 0 01-4.293 1.779 6.029 6.029 0 01-4.292-1.779 6.028 6.028 0 01-1.778-4.292c0-1.216.356-2.378 1.017-3.367A37.068 37.068 0 010 37c0-9.883 3.849-19.175 10.837-26.163C17.825 3.849 27.117 0 37 0c2.478 0 4.956.247 7.365.733a1.446 1.446 0 01-.572 2.834A34.368 34.368 0 0037 2.891C18.192 2.89 2.89 18.19 2.89 37a34.171 34.171 0 007.21 20.971zm2.915 8.506c.85 0 1.648-.33 2.248-.931.601-.601.932-1.4.932-2.249 0-.85-.331-1.648-.932-2.248a3.16 3.16 0 00-2.248-.931c-.849 0-1.648.33-2.248.93-.6.601-.932 1.4-.932 2.25 0 .849.331 1.647.932 2.248.6.6 1.399.931 2.248.931zM65.277 6.41c2.079 2.078 2.331 5.301.76 7.658A37.07 37.07 0 0174 37c0 9.883-3.849 19.175-10.837 26.163C56.175 70.151 46.883 74 37 74c-2.454 0-4.909-.242-7.295-.72a1.446 1.446 0 01.567-2.834c2.2.44 4.464.663 6.728.663 18.808 0 34.11-15.3 34.11-34.109a34.173 34.173 0 00-7.21-20.971 6.033 6.033 0 01-2.915.744 6.03 6.03 0 01-4.292-1.778 6.03 6.03 0 01-1.778-4.292 6.03 6.03 0 011.778-4.293 6.033 6.033 0 014.292-1.778c1.621 0 3.146.632 4.292 1.778zm-7.472 4.293c0 .85.331 1.648.932 2.248.6.6 1.398.931 2.248.931.85 0 1.648-.33 2.249-.93a3.184 3.184 0 000-4.498c-.601-.6-1.4-.931-2.249-.931-.85 0-1.648.33-2.248.931-.6.601-.932 1.4-.932 2.249zm-26.77 51.156c0 .799.648 1.446 1.446 1.446h9.037c.799 0 1.446-.647 1.446-1.446v-2.802a22.634 22.634 0 005.424-2.248l1.978 1.979a1.446 1.446 0 002.045-.001l6.387-6.392a1.446 1.446 0 000-2.044l-1.976-1.976a22.632 22.632 0 002.248-5.424h2.792c.798 0 1.445-.647 1.445-1.446v-9.037c0-.798-.647-1.445-1.445-1.445H59.07a22.634 22.634 0 00-2.248-5.424l1.966-1.965a1.447 1.447 0 00-.001-2.045L52.394 15.2a1.445 1.445 0 00-2.043 0l-1.963 1.964a22.634 22.634 0 00-5.424-2.248V12.14c0-.799-.647-1.446-1.446-1.446h-9.037c-.798 0-1.445.647-1.445 1.446v2.776c-1.9.511-3.717 1.264-5.424 2.248l-1.963-1.963a1.446 1.446 0 00-2.044 0l-6.392 6.387a1.443 1.443 0 000 2.045l1.965 1.965a22.628 22.628 0 00-2.248 5.424h-2.787c-.798 0-1.445.647-1.445 1.445l-.005 9.037a1.444 1.444 0 001.445 1.446h2.792a22.632 22.632 0 002.248 5.424l-1.976 1.976a1.445 1.445 0 000 2.044l6.387 6.392a1.445 1.445 0 002.044 0l1.979-1.978a22.65 22.65 0 005.424 2.248v2.802zm-4.857-8.09a1.446 1.446 0 00-1.806.193l-1.76 1.76-4.345-4.349 1.759-1.758a1.445 1.445 0 00.192-1.806 19.782 19.782 0 01-2.738-6.607 1.446 1.446 0 00-1.413-1.142h-2.483l.004-6.147h2.479c.681 0 1.27-.475 1.413-1.141a19.783 19.783 0 012.738-6.607c.37-.572.29-1.324-.192-1.806l-1.747-1.747 4.348-4.345 1.745 1.746a1.447 1.447 0 001.806.192 19.775 19.775 0 016.607-2.738 1.446 1.446 0 001.142-1.413v-2.468h6.146v2.468c0 .681.475 1.27 1.142 1.413a19.793 19.793 0 016.606 2.738c.572.37 1.325.29 1.806-.192l1.746-1.746 4.348 4.345-1.747 1.747a1.445 1.445 0 00-.192 1.806 19.798 19.798 0 012.738 6.607 1.445 1.445 0 001.413 1.142h2.483v6.146h-2.483c-.682 0-1.27.476-1.413 1.142a19.783 19.783 0 01-2.738 6.606c-.37.573-.29 1.325.192 1.807l1.758 1.758-4.344 4.348-1.76-1.76a1.445 1.445 0 00-1.807-.191 19.796 19.796 0 01-6.606 2.737 1.445 1.445 0 00-1.142 1.413v2.494h-6.147V57.92c0-.68-.475-1.27-1.141-1.413a19.785 19.785 0 01-6.607-2.737zM37 25.059c6.585 0 11.943 5.357 11.943 11.942S43.585 48.943 37 48.943 25.058 43.585 25.058 37 30.415 25.058 37 25.058zm0 2.89c-4.991 0-9.052 4.06-9.052 9.052s4.06 9.052 9.052 9.052S46.052 41.99 46.052 37c0-4.99-4.06-9.052-9.052-9.052zM50.308 5.466c.38 0 .753-.154 1.022-.423.269-.27.423-.643.423-1.024a1.46 1.46 0 00-.423-1.022 1.456 1.456 0 00-1.022-.423c-.382 0-.752.155-1.021.423-.27.27-.424.642-.424 1.022 0 .382.154.753.424 1.024.269.269.64.423 1.021.423zM22.733 68.983a1.457 1.457 0 011.022-.423c.38 0 .753.154 1.022.423s.423.642.423 1.022-.154.753-.423 1.022a1.457 1.457 0 01-1.022.423c-.38 0-.753-.154-1.022-.423a1.454 1.454 0 01-.423-1.022c0-.38.155-.753.423-1.022z" fill="#2364AF"></path>
  </g>
  <defs>
    
  </defs>
</symbol></defs>
                            <use xlink:href="#icon_gear"></use>
                        </svg>