<svg xmlns:xlink="http://www.w3.org/1999/xlink" xmlns="http://www.w3.org/2000/svg" class="privilege__icon" width="74"  height="74" ><defs><symbol fill="none" viewBox="0 0 74 74" id="icon_tools">
  <g clip-path="url(#icon_tools_clip0)">
    <circle cx="36.82" cy="42" r="32" fill="#FCCF8A"></circle>
    <path d="M46.854 24.062a10.56 10.56 0 002.459.313c.915 0 1.784-.146 2.629-.364C56.566 22.836 60 18.68 60 13.688a.453.453 0 00-.855-.21 7.1 7.1 0 01-6.274 3.772c-1.77 0-3.37-.67-4.617-1.739l-.77-.765c-1.068-1.25-1.738-2.847-1.738-4.621a7.092 7.092 0 013.777-6.274.449.449 0 00.224-.51.449.449 0 00-.434-.341C44 3 39.626 6.89 38.8 11.97c-.093.563-.175 1.13-.175 1.717 0 1.055.2 2.049.484 3.01L16.694 39.11c-.962-.281-1.956-.484-3.006-.484-.592 0-1.158.082-1.725.175C6.887 39.63 3 44.004 3 49.313c0 .21.143.388.346.438.2.053.41-.043.509-.224a7.092 7.092 0 016.274-3.78c1.777 0 3.384.672 4.638 1.755l.73.735c1.083 1.25 1.757 2.857 1.757 4.634a7.105 7.105 0 01-3.777 6.277.444.444 0 00-.224.51.448.448 0 00.434.342c4.988 0 9.142-3.43 10.321-8.051.217-.848.367-1.717.367-2.636 0-.848-.121-1.664-.31-2.455l22.79-22.796z" fill="#fff"></path>
    <path fill-rule="evenodd" clip-rule="evenodd" d="M49.313 1c-6.32 0-11.507 4.628-12.487 10.648-.095.575-.201 1.278-.201 2.04 0 .849.104 1.65.265 2.4L16.084 36.892a11.441 11.441 0 00-2.396-.266c-.767 0-1.47.107-2.048.201C5.624 37.81 1 42.998 1 49.312a2.45 2.45 0 001.848 2.376 2.453 2.453 0 002.76-1.199l.007-.012.006-.013a5.092 5.092 0 014.508-2.718c1.232 0 2.364.455 3.277 1.225l.62.623c.771.91 1.228 2.043 1.228 3.277a5.105 5.105 0 01-2.712 4.51 2.445 2.445 0 00-1.223 2.786A2.448 2.448 0 0013.687 62c5.935 0 10.861-4.083 12.258-9.555.244-.951.43-1.995.43-3.133 0-.621-.053-1.22-.142-1.794l21.281-21.287c.573.09 1.172.144 1.798.144 1.13 0 2.171-.18 3.125-.426C57.914 24.555 62 19.626 62 13.687a2.456 2.456 0 00-1.837-2.372l-.015-.004-.017-.004a2.452 2.452 0 00-2.747 1.222l-.004.008a5.1 5.1 0 01-4.509 2.713c-1.227 0-2.354-.453-3.263-1.213l-.651-.648c-.76-.913-1.21-2.036-1.21-3.264a5.092 5.092 0 012.714-4.507 2.449 2.449 0 001.22-2.785A2.448 2.448 0 0049.313 1zm-8.54 11.292a8.714 8.714 0 013.743-5.835 9.063 9.063 0 00-.77 3.668c0 2.295.87 4.343 2.219 5.92l.052.062.88.875.056.048c1.575 1.35 3.628 2.22 5.918 2.22 1.31 0 2.553-.276 3.676-.773a8.73 8.73 0 01-5.098 3.596l-.006.002c-.734.189-1.43.3-2.13.3-.656 0-1.308-.095-1.996-.259l-1.087-.258-24.37 24.377.26 1.087c.161.678.255 1.334.255 1.99 0 .7-.113 1.396-.304 2.14v.002a8.735 8.735 0 01-3.588 5.088 9.06 9.06 0 00.77-3.67c0-2.3-.873-4.362-2.244-5.945l-.045-.052-.832-.837-.058-.05c-1.585-1.368-3.647-2.242-5.945-2.242-1.31 0-2.552.276-3.673.773a8.716 8.716 0 015.83-3.745c.556-.091.985-.149 1.402-.149.793 0 1.586.153 2.445.404l1.137.333L41.365 17.27l-.338-1.142c-.251-.848-.402-1.641-.402-2.442 0-.412.057-.841.148-1.392v-.003zm22.242 24.843h7.849A3.142 3.142 0 0174 40.26v3.128a3.127 3.127 0 01-3.132 3.129h-7.455a18.64 18.64 0 01-1.529 4.39l5.517 5.529a3.115 3.115 0 01.012 4.43L65.2 63.084a3.141 3.141 0 01-4.428 0l-5.037-5.048a18.382 18.382 0 01-4.427 2.26v7.35a3.139 3.139 0 01-3.129 3.133h-3.128a3.137 3.137 0 01-3.129-3.133v-6.542a18.252 18.252 0 01-5.163-1.671L32 64.187a3.154 3.154 0 01-4.435.004l-1.273-1.278c1.04-1.265 1.836-2.738 2.253-4.375.23-.894.804-5.727.654-5.963l8.235-8.24c.785 3.496 3.888 6.102 7.617 6.102a7.82 7.82 0 007.826-7.823c0-3.729-2.613-6.83-6.11-7.612l5.859-5.862c.834.199 1.694.33 2.591.33.965 0 1.882-.153 2.772-.383 3.444-.875 6.234-3.339 7.59-6.554l.713.714c1.232 1.224 1.232 3.215 0 4.424l-5.201 5.22a19.338 19.338 0 011.923 4.244z" fill="#2364AF"></path>
  </g>
  <defs>
    
  </defs>
</symbol></defs>
                            <use xlink:href="#icon_tools"></use>
                        </svg>