<svg xmlns:xlink="http://www.w3.org/1999/xlink" xmlns="http://www.w3.org/2000/svg" class="privilege__icon" width="74"  height="74" ><defs><symbol fill="none" viewBox="0 0 74 74" id="icon_all-day"><g clip-path="url(#icon_all-day_clip0)"><circle cx="37" cy="37" r="32" fill="#FCCF8A"></circle><path fill-rule="evenodd" clip-rule="evenodd" d="M37 30c-3.186 0-6 2.712-6 6.348h-8C23 28.554 29.14 22 37 22s14 6.554 14 14.348c0 3.47-1.208 6.677-3.234 9.173l-6.211-5.042A6.523 6.523 0 0043 36.348C43 32.712 40.186 30 37 30z" fill="#fff"></path><path fill-rule="evenodd" clip-rule="evenodd" d="M63.859 28.459h4.674c3.017 0 5.466 2.447 5.467 5.45v6.022a5.412 5.412 0 01-1.599 3.855 5.423 5.423 0 01-3.861 1.6H63.86a27.92 27.92 0 01-1.871 4.5l3.308 3.298c2.127 2.13 2.127 5.59.001 7.715l-4.27 4.26a5.45 5.45 0 01-3.868 1.597 5.424 5.424 0 01-3.861-1.598l-3.306-3.299c-.326.169-.66.318-.994.468l-.35.157v-3.686l.108-.057.105-.054c.197-.103.395-.206.589-.319l1.106-.64 5.097 5.085c.808.807 2.217.804 3.026-.002l4.267-4.258a2.139 2.139 0 00-.003-3.021L57.85 50.45l.642-1.104a24.629 24.629 0 002.514-6.046l.328-1.233h7.202c.573 0 1.11-.222 1.513-.626.403-.403.626-.939.626-1.509V33.91a2.137 2.137 0 00-2.133-2.135h-7.209l-.328-1.234a24.579 24.579 0 00-2.512-6.044l-.64-1.104 5.093-5.084a2.137 2.137 0 000-3.022l-4.268-4.257c-.808-.807-2.217-.807-3.024-.001l-5.097 5.082-1.105-.64a24.724 24.724 0 00-6.06-2.51l-1.234-.328v-7.18c0-1.178-.96-2.137-2.14-2.137h-6.035c-1.18 0-2.14.96-2.14 2.138v7.18l-1.235.328a24.777 24.777 0 00-6.06 2.511l-1.107.64-5.092-5.081c-.809-.806-2.219-.806-3.025 0l-4.272 4.259a2.135 2.135 0 00.002 3.018l5.097 5.087-.64 1.104a24.67 24.67 0 00-2.513 6.044l-.328 1.233H5.468a2.14 2.14 0 00-2.142 2.136v6.022c0 .454.146.876.391 1.222H.151A5.358 5.358 0 010 39.935v-6.023a5.464 5.464 0 015.461-5.454h4.681a28.057 28.057 0 011.872-4.496l-3.31-3.303a5.453 5.453 0 01-.003-7.713l4.272-4.258a5.43 5.43 0 013.863-1.598c1.46 0 2.833.567 3.865 1.599l3.303 3.297a28.065 28.065 0 014.512-1.87v-4.66C28.516 2.448 30.97 0 33.982 0h6.035c3.013 0 5.465 2.449 5.465 5.457v4.658c1.55.489 3.06 1.114 4.51 1.868L53.3 8.685A5.427 5.427 0 0157.16 7.09c1.462 0 2.834.567 3.866 1.597l4.268 4.258a5.457 5.457 0 010 7.715l-3.306 3.3a27.888 27.888 0 011.87 4.5zm-11.71 8.464a15.03 15.03 0 01-3.502 9.654v-4.064c0-.504-.289-.927-.697-1.159a11.7 11.7 0 00.873-4.431c0-6.507-5.305-11.801-11.825-11.801s-11.825 5.294-11.825 11.8c0 1.495.291 2.92.801 4.236h-3.511a15.012 15.012 0 01-.617-4.235c0-8.338 6.798-15.12 15.152-15.12s15.15 6.782 15.15 15.12zM14.07 64.607c2.605-2.33 4.305-3.913 5.105-4.747.798-.834 1.438-1.629 1.92-2.382a9.018 9.018 0 001.069-2.302c.23-.78.346-1.632.346-2.551 0-1.23-.33-2.339-.99-3.33-.658-.988-1.586-1.75-2.78-2.284-1.195-.534-2.553-.803-4.075-.803-1.21 0-2.3.123-3.27.37-.971.245-1.869.6-2.694 1.066-.825.466-1.844 1.238-3.054 2.318l3.488 4.075c.953-.823 1.808-1.446 2.564-1.868.756-.421 1.502-.634 2.242-.634.717 0 1.275.177 1.672.53.396.353.594.834.594 1.444 0 .492-.099.963-.297 1.412-.199.449-.55.987-1.053 1.612-.504.625-1.576 1.794-3.214 3.505l-5.74 5.79V70H22.96v-5.23h-8.89v-.163h.001zM34.55 46.545h5.868v14.182h2.588v4.731h-2.588V70h-6.27v-4.54h-9.37v-4.652l9.772-14.262zM34.146 58c0-.514.02-1.206.057-2.078.038-.872.067-1.33.089-1.37h-.177a16.885 16.885 0 01-1.238 2.309l-2.604 3.866h3.873V58z" fill="#2364AF"></path></g><defs></defs></symbol></defs>
                            <use xlink:href="#icon_all-day"></use>
                        </svg>