<svg xmlns:xlink="http://www.w3.org/1999/xlink" xmlns="http://www.w3.org/2000/svg" class="privilege__icon" width="74"  height="74" ><defs><symbol fill="none" viewBox="0 0 74 74" id="icon_sertificate">
  <circle cx="36.82" cy="42" r="32" fill="#FCCF8A"></circle>
  <path d="M0 3a2 2 0 012-2h70a2 2 0 012 2v45a2 2 0 01-2 2H2a2 2 0 01-2-2V3z" fill="#fff"></path>
  <path fill-rule="evenodd" clip-rule="evenodd" d="M4 4v39h20.038c.107 1.408.438 2.753.958 4H2a2 2 0 01-2-2V2a2 2 0 012-2h70a2 2 0 012 2v43a2 2 0 01-2 2H49.004c.52-1.247.851-2.592.958-4H70V4H4zm43 38c0 5.523-4.477 10-10 10s-10-4.477-10-10 4.477-10 10-10 10 4.477 10 10zm-18 9.001v11.398a1 1 0 001.63.776l5.74-4.663a1 1 0 011.26 0l5.74 4.663A1 1 0 0045 62.4V51.001A9.985 9.985 0 0137 55a9.985 9.985 0 01-8-3.999zM12 14a2 2 0 012-2h46a2 2 0 110 4H14a2 2 0 01-2-2zm15 7a2 2 0 100 4h20a2 2 0 100-4H27z" fill="#2364AF"></path>
</symbol></defs>
                            <use xlink:href="#icon_sertificate"></use>
                        </svg>