<svg xmlns:xlink="http://www.w3.org/1999/xlink" xmlns="http://www.w3.org/2000/svg" class="privilege__icon" width="74"  height="74" ><defs><symbol fill="none" viewBox="0 0 74 74" id="icon_warrantay-big">
  <circle cx="37" cy="37" r="32" fill="#FCCF8A"></circle>
  <path d="M64.5 14.5l-62 20-2 2 6 20 3 1.5 62-19 1.5-2.5-6-19-2.5-3z" fill="#fff"></path>
  <path fill-rule="evenodd" clip-rule="evenodd" d="M28.322 8.99c-10.5 3.299-17.8 12.064-19.755 22.18l8.386-2.635c3.349-7.588 10.933-12.903 19.747-12.903 4.11 0 7.94 1.175 11.215 3.177l9.296-2.92C49.823 8.708 38.822 5.692 28.322 8.99zM42.85 20.4a17.797 17.797 0 00-6.15-1.11c-6.06 0-11.42 3.031-14.666 7.649l20.816-6.54zM27.225 5.5C14.74 9.422 6.278 20.204 4.667 32.395l-2.302.723C.417 33.73-.514 36.304.288 38.856L5.6 55.77c.801 2.551 3.037 4.133 4.986 3.52l3.3-1.036-.997.313c8.294 9.08 21.4 13.086 33.884 9.165C59.258 63.81 67.72 53.029 69.332 40.839l-3.9 1.223 6.202-1.948c1.95-.612 2.88-3.186 2.078-5.74L68.399 17.46c-.802-2.553-3.038-4.132-4.985-3.52l-2.305.724c-8.294-9.079-21.4-13.084-33.884-9.163zm38.208 36.561c-1.956 10.116-9.256 18.882-19.756 22.18-10.5 3.3-21.501.283-28.889-6.898l7.631-2.398a21.453 21.453 0 0012.28 3.856c9.253 0 17.141-5.864 20.204-14.06l-4.732 1.486c-3.112 5.323-8.873 8.916-15.471 8.916-2.696 0-5.246-.616-7.542-1.686l36.275-11.396zM3.095 35.445c-.875.276-1.26 1.53-.863 2.801l5.313 16.916c.4 1.27 1.436 2.078 2.31 1.803l61.049-19.177c.874-.276 1.26-1.53.862-2.801l-5.313-16.915c-.398-1.27-1.436-2.08-2.309-1.805L3.095 35.445zm60.92-13.924l3.78 12.03c.426 1.363-.228 2.78-1.462 3.167L12.996 53.472c-1.235.39-2.583-.4-3.01-1.76L6.205 39.68c-.43-1.362.227-2.779 1.46-3.168l53.339-16.754c1.235-.387 2.582.401 3.01 1.763zm-5.463 11.146l-3.42 1.11-.016 2.163-2.074.673.448-10.61 1.808-.588 6.619 8.315-2.074.674-1.29-1.737zm-3.406-.64l2.367-.769-2.341-3.157-.026 3.926zm-3.636 7.657l1.801-.585-1.11-3.945-1.105.36-2.566-7.9-6.202 2.015 1.083 4.263c.225.943.332 1.76.323 2.454-.007.687-.151 1.254-.433 1.7l-.715.233 1.367 3.854 1.847-.6-.754-2.321 5.708-1.855.756 2.327zm-2.364-3.537l-3.608 1.172c.28-1.068.214-2.458-.198-4.169l-.646-2.543 2.399-.78 2.053 6.32zm-8.032-.653c.302.932.403 1.802.302 2.611-.101.81-.398 1.505-.89 2.086-.487.58-1.127.999-1.92 1.257-.784.255-1.546.294-2.284.116-.738-.177-1.389-.56-1.954-1.147-.566-.593-1-1.343-1.3-2.252l-.151-.468c-.303-.932-.402-1.805-.298-2.62.107-.82.405-1.519.893-2.094.492-.582 1.132-1 1.92-1.257.79-.256 1.552-.293 2.287-.11.738.177 1.389.567 1.954 1.169.567.597 1.002 1.359 1.303 2.286l.138.423zm-2.116.213c-.323-.993-.746-1.69-1.268-2.09-.523-.4-1.114-.493-1.773-.279-.655.213-1.077.633-1.266 1.26-.19.622-.128 1.426.187 2.411l.15.462c.314.967.736 1.659 1.264 2.076.529.418 1.127.518 1.794.301.655-.212 1.075-.631 1.26-1.257.183-.63.117-1.437-.198-2.422l-.15-.462zm-11.773.576l4.245-1.38-.513-1.579-6.196 2.013 3.076 9.466 1.95-.633-2.562-7.887zM16.66 48.434l6.488-2.108-.492-1.514-4.07 1.322 1.415-2.968c.38-.838.612-1.538.697-2.103.085-.564.051-1.08-.101-1.548-.277-.854-.763-1.427-1.457-1.72-.69-.293-1.522-.281-2.497.036-.637.207-1.163.529-1.577.965a3.059 3.059 0 00-.807 1.498 3.283 3.283 0 00.104 1.713l1.885-.612c-.154-.477-.158-.9-.01-1.27.152-.374.44-.63.865-.769.394-.128.737-.105 1.028.069.29.169.503.464.64.884.1.308.104.666.011 1.075-.088.407-.268.908-.539 1.505l-2.002 4.258.419 1.288z" fill="#2364AF"></path>
</symbol></defs>
                            <use xlink:href="#icon_warrantay-big"></use>
                        </svg>