<svg xmlns:xlink="http://www.w3.org/1999/xlink" xmlns="http://www.w3.org/2000/svg" class="info-about__item-icon" width="24"  height="24" ><defs><symbol viewBox="0 0 24 24" id="icon_clock"><path fill-rule="evenodd" clip-rule="evenodd" d="M22 12c0 5.523-4.477 10-10 10S2 17.523 2 12 6.477 2 12 2s10 4.477 10 10zm2 0c0 6.627-5.373 12-12 12S0 18.627 0 12 5.373 0 12 0s12 5.373 12 12zM13 5.5a1 1 0 10-2 0V12a1 1 0 001 1h4a1 1 0 100-2h-3V5.5z"></path></symbol></defs>
            <use xlink:href="#icon_clock" fill="#51B2C0"></use>
        </svg>