<svg xmlns:xlink="http://www.w3.org/1999/xlink" xmlns="http://www.w3.org/2000/svg" class="info-about__item-icon" width="18"  height="18" ><defs><symbol fill="none" viewBox="0 0 18 18" id="icon_warranty">
  <path d="M6 8.5l2.111 2.389L11.5 7" stroke="#51B2C0" stroke-linecap="round" stroke-linejoin="round"></path>
  <path d="M8.619 1.224a.5.5 0 01.762 0l.951 1.122a1.5 1.5 0 001.5.488l1.43-.35a.5.5 0 01.617.45l.11 1.466a1.5 1.5 0 00.927 1.277l1.362.557a.5.5 0 01.236.726L15.74 8.21a1.5 1.5 0 000 1.578l.774 1.251a.5.5 0 01-.236.726l-1.362.557a1.5 1.5 0 00-.927 1.277l-.11 1.467a.5.5 0 01-.617.448l-1.43-.349a1.5 1.5 0 00-1.5.488l-.95 1.122a.5.5 0 01-.763 0l-.952-1.122a1.5 1.5 0 00-1.5-.488l-1.43.35a.5.5 0 01-.616-.45L4.01 13.6a1.5 1.5 0 00-.927-1.277l-1.362-.557a.5.5 0 01-.236-.726L2.26 9.79a1.5 1.5 0 000-1.578L1.486 6.96a.5.5 0 01.236-.726l1.362-.557A1.5 1.5 0 004.01 4.4l.11-1.467a.5.5 0 01.617-.448l1.43.349a1.5 1.5 0 001.5-.488l.95-1.122z" stroke="#51B2C0"></path>
</symbol></defs>
            <use xlink:href="#icon_warranty" fill="#51B2C0"></use>
        </svg>