<svg xmlns:xlink="http://www.w3.org/1999/xlink" xmlns="http://www.w3.org/2000/svg" class="work-scheme-step__icon" width="74"  height="74" ><defs><symbol fill="none" viewBox="0 0 74 74" id="icon_scheme-step-1">
  <g clip-path="url(#icon_scheme-step-1_clip0)" fill-rule="evenodd" clip-rule="evenodd">
    <path d="M21.05 43.475a7.175 7.175 0 11-14.35 0 7.175 7.175 0 0114.35 0zm-1.76 8.616a10.168 10.168 0 004.76-8.616c0-5.62-4.556-10.175-10.175-10.175C8.255 33.3 3.7 37.856 3.7 43.475a10.17 10.17 0 005.068 8.802C3.494 55.18-.334 62.42.023 72.421c.086 2.394 27.727 1.796 27.727 0 0-10.951-3.396-17.728-8.46-20.33zM4.68 70.698a26.937 26.937 0 01-1.677-.21c.202-11.207 6.132-16.613 11.117-16.613 2.842 0 5.343 1.255 7.251 4.07 1.773 2.615 3.077 6.672 3.332 12.389-.448.067-.978.134-1.586.197-2.472.259-5.83.424-9.232.461-3.406.037-6.751-.056-9.205-.294z" fill="#2364AF"></path>
    <path d="M36.075 1.85a5.55 5.55 0 00-5.55 5.55v39.783a.925.925 0 001.366.813l9.435-5.115a.924.924 0 01.441-.112H66.6a5.55 5.55 0 005.55-5.55V7.4a5.55 5.55 0 00-5.55-5.55H36.075z" fill="#FCCF8A"></path>
    <path d="M36.075 3.238A4.162 4.162 0 0031.913 7.4v39.006l8.752-4.745c.339-.183.717-.28 1.102-.28H66.6a4.162 4.162 0 004.163-4.162V7.4A4.162 4.162 0 0066.6 3.238H36.075zM29.138 7.4A6.937 6.937 0 0136.075.463H66.6A6.937 6.937 0 0173.538 7.4v29.82a6.937 6.937 0 01-6.938 6.937H41.885l-9.333 5.06c-1.54.834-3.414-.281-3.414-2.034V7.4z" fill="#2364AF"></path>
    <path d="M37.925 12.375a1.5 1.5 0 011.5-1.5h22.9a1.5 1.5 0 010 3h-22.9a1.5 1.5 0 01-1.5-1.5zm0 9.25a1.5 1.5 0 011.5-1.5h22.9a1.5 1.5 0 010 3h-22.9a1.5 1.5 0 01-1.5-1.5zm1.5 7.75a1.5 1.5 0 000 3h11.8a1.5 1.5 0 000-3h-11.8z" fill="#2364AF"></path>
  </g>
  <defs>
    
  </defs>
</symbol></defs>
                            <use xlink:href="#icon_scheme-step-1"></use>
                        </svg>