<svg xmlns:xlink="http://www.w3.org/1999/xlink" xmlns="http://www.w3.org/2000/svg" class="work-scheme-step__icon" width="74"  height="74" ><defs><symbol fill="none" viewBox="0 0 74 74" id="icon_scheme-step-3">
  <path fill="#FCCF8A" d="M23.125 1.85H72.15v30.525H23.125z"></path>
  <path d="M74 29.839V3.58A3.585 3.585 0 0070.42 0H25.063a3.585 3.585 0 00-3.58 3.58v6.01a17.961 17.961 0 00-1.194-.042C9.102 9.548 0 18.65 0 29.838c0 9.542 6.628 17.545 15.516 19.7v4.172c0 .64.183 1.234.479 1.755a3.573 3.573 0 00-1.672 3.019v9.548A5.974 5.974 0 0020.29 74a5.975 5.975 0 005.968-5.968v-9.548c0-1.271-.67-2.384-1.672-3.019a3.541 3.541 0 00.479-1.755v-4.172a20.331 20.331 0 0011.831-8.09l.885 1.718c-.432.846-.8 1.737-1.097 2.66l-3.265 1.046v8.903l3.264 1.045c.297.925.664 1.816 1.096 2.66l-1.566 3.043 6.295 6.295 3.043-1.566c.846.432 1.736.8 2.66 1.097l1.048 3.264h8.903l1.045-3.263a17.87 17.87 0 002.66-1.097l3.043 1.566 6.294-6.295-1.565-3.042c.432-.845.8-1.737 1.097-2.66L74 55.772v-8.902l-3.263-1.046a17.929 17.929 0 00-1.097-2.66l1.565-3.043-6.294-6.294-3.042 1.566c-.848-.434-1.738-.8-2.66-1.097l-.284-.878H70.42A3.585 3.585 0 0074 29.84zm-48.936 3.58h7.837a13.065 13.065 0 01-12.61 9.549c-7.24 0-13.13-5.89-13.13-13.13 0-7.238 5.89-13.128 13.13-13.128.381 0 .78.026 1.193.068v13.06a3.585 3.585 0 003.58 3.581zm-1.193 34.613a3.585 3.585 0 01-3.58 3.58 3.585 3.585 0 01-3.581-3.58v-9.548c0-.659.534-1.194 1.193-1.194h4.774c.66 0 1.194.535 1.194 1.194v9.548zM22.677 53.71c0 .658-.534 1.193-1.193 1.193h-2.387a1.194 1.194 0 01-1.194-1.193v-3.734c.784.092 1.578.153 2.387.153.808 0 1.602-.064 2.387-.157v3.738zm-2.387-5.968c-9.871 0-17.903-8.031-17.903-17.903 0-9.872 8.031-17.903 17.903-17.903.379 0 .776.019 1.194.05v2.39a14.666 14.666 0 00-1.194-.053c-8.555 0-15.516 6.96-15.516 15.516 0 8.555 6.961 15.516 15.516 15.516a15.445 15.445 0 0015.072-11.936h2.444c-1.675 8.253-8.972 14.323-17.516 14.323zm19.935-14.323h8.268l-.28.876c-.923.298-1.815.664-2.661 1.097l-3.043-1.566-3.325 3.326c.462-1.192.81-2.439 1.041-3.733zm17.094 2.812l.617.175c1.18.333 2.302.796 3.338 1.376l.559.313 2.62-1.348 3.832 3.833-1.347 2.618.313.56a15.383 15.383 0 011.376 3.338l.174.617 2.812.899v5.42l-2.812.9-.174.617a15.48 15.48 0 01-1.375 3.338l-.314.559 1.347 2.62-3.832 3.833-2.619-1.348-.56.312a15.475 15.475 0 01-3.338 1.378l-.617.174-.899 2.81H51l-.9-2.811-.617-.174a15.486 15.486 0 01-3.338-1.375l-.559-.314-2.62 1.348-3.833-3.833 1.349-2.62-.314-.559a15.5 15.5 0 01-1.377-3.338l-.174-.617-2.81-.899v-5.42l2.811-.9.175-.617a15.486 15.486 0 011.375-3.338l.314-.559-1.35-2.62 3.835-3.832 2.62 1.347.558-.312a15.348 15.348 0 013.338-1.376l.617-.175.9-2.812h5.419l.9 2.812zm-8.06-5.199H25.064a1.195 1.195 0 01-1.193-1.193V3.58c0-.658.535-1.194 1.194-1.194h45.354c.66 0 1.194.536 1.194 1.194v26.258c0 .657-.535 1.193-1.194 1.193H49.26z" fill="#2364AF"></path>
  <path d="M63.258 4.774a5.974 5.974 0 00-5.968 5.968c0 .668.136 1.3.339 1.901l-5.306 3.096a4.755 4.755 0 00-3.388-1.416c-1.15 0-2.192.425-3.017 1.105l-5.68-4.131c.215-.543.342-1.13.342-1.749a4.779 4.779 0 00-4.774-4.774 4.779 4.779 0 00-4.774 4.774c0 1.598.796 3.008 2.005 3.875l-3.104 8.07c-.032 0-.062-.01-.095-.01a3.585 3.585 0 00-3.58 3.581 3.585 3.585 0 003.58 3.581 3.585 3.585 0 003.581-3.58 3.557 3.557 0 00-1.261-2.706l3.112-8.091c.178.021.352.055.536.055 1.15 0 2.192-.425 3.018-1.106l5.68 4.131a4.738 4.738 0 00-.343 1.749 4.779 4.779 0 004.774 4.774 4.779 4.779 0 004.774-4.774c0-.449-.082-.875-.198-1.288l5.32-3.103c1.093 1.22 2.664 2.004 4.427 2.004a5.975 5.975 0 005.968-5.968 5.975 5.975 0 00-5.968-5.968zm-33.42 21.484a1.195 1.195 0 010-2.387 1.195 1.195 0 010 2.387zm5.968-14.322a2.39 2.39 0 01-2.387-2.388 2.39 2.39 0 012.387-2.387 2.39 2.39 0 012.387 2.387 2.39 2.39 0 01-2.387 2.387zm13.13 9.548a2.39 2.39 0 01-2.388-2.387 2.39 2.39 0 012.387-2.387 2.39 2.39 0 012.387 2.387 2.39 2.39 0 01-2.387 2.387zm14.322-7.161a3.585 3.585 0 01-3.58-3.581 3.585 3.585 0 013.58-3.58 3.585 3.585 0 013.58 3.58 3.585 3.585 0 01-3.58 3.58zM57.29 26.258h2.388v2.387H57.29v-2.387zM62.065 26.258h2.386v2.387h-2.386v-2.387zM66.839 26.258h2.387v2.387h-2.387v-2.387zM57.29 21.484h11.936v2.387H57.291v-2.387zM11.935 29.839H9.548c0 5.922 4.819 10.742 10.742 10.742v-2.387c-4.606 0-8.355-3.748-8.355-8.355zM62.064 51.322h-2.387a5.975 5.975 0 01-5.968 5.968v2.387c4.606 0 8.355-3.749 8.355-8.355z" fill="#2364AF"></path>
  <path d="M40.58 51.323c0 7.239 5.89 13.129 13.13 13.129 7.239 0 13.129-5.89 13.129-13.13 0-7.238-5.89-13.128-13.13-13.128-7.238 0-13.128 5.89-13.128 13.129zM53.71 40.58c5.923 0 10.741 4.818 10.741 10.742 0 5.923-4.818 10.742-10.741 10.742-5.924 0-10.742-4.819-10.742-10.742 0-5.924 4.818-10.742 10.742-10.742z" fill="#2364AF"></path>
</symbol></defs>
                            <use xlink:href="#icon_scheme-step-3"></use>
                        </svg>