<svg xmlns:xlink="http://www.w3.org/1999/xlink" xmlns="http://www.w3.org/2000/svg" class="work-scheme-step__icon" width="74"  height="74" ><defs><symbol fill="none" viewBox="0 0 74 74" id="icon_scheme-step-4">
  <path fill-rule="evenodd" clip-rule="evenodd" d="M4.162 11.563c1.696-1.08 5.273-3.238 6.013-3.238.74 0 5.241 1.233 7.4 1.85l7.4 4.162-.925 11.1-8.325 4.625-6.938.463-6.937-5.087-.925-6.476c.462-1.541 1.48-4.81 1.85-5.55.37-.74 1.079-1.541 1.387-1.85zm2.313 5.55c.37-.37 2.62-2.313 3.7-3.238H14.8l3.7 3.238V22.2l-3.7 4.162H9.712l-3.237-3.7v-5.55z" fill="#FCCF8A"></path>
  <path d="M56.887 1.387l-6.012 5.088-.463 8.787-.925 1.388v6.475l16.65.462 6.475-6.474V8.325c-2.158 1.85-6.475 5.643-6.475 6.013 0 .37-2.775.154-4.162 0l-2.313-2.775V8.325l6.475-6.938h-9.25z" fill="#FCCF8A"></path>
  <path d="M73.24 6.26a1.233 1.233 0 00-1.344.268l-6.526 6.528h-2.465L60.95 11.1V8.633l6.525-6.528A1.234 1.234 0 0066.603 0h-9.862a1.232 1.232 0 00-.872.361l-6.164 6.167a1.235 1.235 0 00-.36.872v6.608a4.92 4.92 0 00-3.7-1.675V11.1c.012-3.186-3.832-4.878-6.163-2.755-1.34-1.25-3.592-1.25-4.931 0-1.34-1.25-3.593-1.25-4.932 0-2.333-2.123-6.175-.43-6.164 2.755v1.386a62.132 62.132 0 01-2.736-2.013A14.582 14.582 0 0011.788 7.4C4.755 7.417-.461 13.355.032 20.306c-.13 6.32 5.437 11.891 11.756 11.76a14.582 14.582 0 008.928-3.07 62.355 62.355 0 012.74-2.016v2.62a1.235 1.235 0 00.36.872l2.105 2.105v5.656h22.19v-5.656l2.105-2.105a1.235 1.235 0 00.36-.872v-4.933h16.027a1.232 1.232 0 00.872-.362l6.164-6.166a1.235 1.235 0 00.361-.872V7.4a1.234 1.234 0 00-.76-1.14zM41.946 9.868A1.234 1.234 0 0143.18 11.1v1.233h-2.465V11.1a1.235 1.235 0 011.232-1.233zm-4.93 0a1.234 1.234 0 011.232 1.233v1.233a4.9 4.9 0 00-2.466.664V11.1a1.235 1.235 0 011.233-1.233zm0 13.182a7.456 7.456 0 00-2.144-2.122 1.65 1.65 0 00.032-.038 4.915 4.915 0 002.794 1.28 7.46 7.46 0 00-.683.88zM32.084 9.867a1.234 1.234 0 011.233 1.233v7.4a1.234 1.234 0 11-2.466 0v-7.4a1.235 1.235 0 011.233-1.233zM25.921 11.1c.062-1.632 2.404-1.635 2.466 0v7.4a1.234 1.234 0 11-2.466 0v-7.4zM19.2 27.05c-3.959 3.15-10.294 3.663-13.981-.173-2.144-2.154-2.863-4.736-2.721-7.717-.103-4.995 4.296-9.397 9.29-9.293 5.377.027 7.482 2.92 11.667 5.6V24a67.023 67.023 0 00-4.255 3.05zm28.911 2.04l-1.743 1.743h-1.955c-1.633.06-1.633 2.407 0 2.467h1.233v4.933h-17.26V33.3h1.233c1.634-.06 1.634-2.406 0-2.467h-1.955l-1.743-1.744V22.2h4.931a4.936 4.936 0 014.931 4.933v4.934a1.234 1.234 0 102.466 0v-4.934A4.94 4.94 0 0143.18 22.2c1.631-.059 1.635-2.406 0-2.467H38.25a2.465 2.465 0 01-1.744-4.21 2.465 2.465 0 011.744-.723h7.397a2.468 2.468 0 012.465 2.467v11.822zm23.423-12.334L66.093 22.2H50.577v-3.7a1.232 1.232 0 001.233-1.233V7.91l5.441-5.444h6.376L58.845 7.25a1.234 1.234 0 00-.36.873v3.488a1.234 1.234 0 00.36.872l2.678 2.678a1.232 1.232 0 00.871.362h3.487a1.232 1.232 0 00.872-.362l4.781-4.784v6.379zm-55.836-4.062a1.233 1.233 0 00-.872-.36H9.895a1.232 1.232 0 00-.872.36l-3.698 3.7a1.234 1.234 0 00-.362.873V22.2a1.234 1.234 0 00.362.872l3.698 3.7a1.234 1.234 0 00.872.361h4.93a1.234 1.234 0 00.873-.36l3.698-3.7a1.234 1.234 0 00.361-.873v-4.933a1.235 1.235 0 00-.361-.872l-3.698-3.7zm1.593 8.995l-2.976 2.978h-3.91L7.43 21.689v-3.912l2.976-2.977h3.91l2.976 2.977v3.912z" fill="#2364AF"></path>
  <path fill-rule="evenodd" clip-rule="evenodd" d="M24.975 49.95V40.7h24.05v9.25H24.975zm0 2.775h-.925a1.85 1.85 0 01-1.85-1.85v-11.1a1.85 1.85 0 011.85-1.85h25.9a1.85 1.85 0 011.85 1.85v11.1a1.85 1.85 0 01-1.85 1.85h-.925V72.15a1.85 1.85 0 01-1.85 1.85h-20.35a1.85 1.85 0 01-1.85-1.85V52.725zm2.775 0v18.5h18.5v-18.5h-18.5z" fill="#2364AF"></path>
</symbol></defs>
                            <use xlink:href="#icon_scheme-step-4"></use>
                        </svg>