<svg xmlns:xlink="http://www.w3.org/1999/xlink" xmlns="http://www.w3.org/2000/svg" class="work-scheme-step__icon" width="74"  height="74" ><defs><symbol fill="none" viewBox="0 0 74 74" id="icon_scheme-step-2">
  <circle cx="37" cy="64.75" fill="#2364AF" r="3.7"></circle>
  <path fill-rule="evenodd" clip-rule="evenodd" d="M57.35 2.775h-40.7a2.775 2.775 0 00-2.775 2.775v62.9a2.775 2.775 0 002.775 2.775h40.7a2.775 2.775 0 002.775-2.775V5.55a2.775 2.775 0 00-2.775-2.775zM16.65 0a5.55 5.55 0 00-5.55 5.55v62.9A5.55 5.55 0 0016.65 74h40.7a5.55 5.55 0 005.55-5.55V5.55A5.55 5.55 0 0057.35 0h-40.7z" fill="#2364AF"></path>
  <path d="M11.1 5.55A5.55 5.55 0 0116.65 0h40.7a5.55 5.55 0 015.55 5.55v52.725H11.1V5.55z" fill="#FCCF8A"></path>
  <path fill-rule="evenodd" clip-rule="evenodd" d="M57.35 2.775h-40.7a2.775 2.775 0 00-2.775 2.775V55.5h46.25V5.55a2.775 2.775 0 00-2.775-2.775zM16.65 0a5.55 5.55 0 00-5.55 5.55v52.725h51.8V5.55A5.55 5.55 0 0057.35 0h-40.7z" fill="#2364AF"></path>
  <path fill-rule="evenodd" clip-rule="evenodd" d="M42.325 23.125a5.325 5.325 0 11-10.65 0 5.325 5.325 0 0110.65 0zm-.51 6.791a8.325 8.325 0 10-9.388.167c-3.965 2.49-6.783 8.138-6.509 15.829.069 1.915 22.182 1.436 22.182 0 0-8.407-2.502-13.74-6.284-15.995zm-12.112 14.02c-.29-.028-.551-.058-.785-.088.325-8.432 4.843-12.173 8.28-12.173 2.062 0 3.882.895 5.303 2.992 1.283 1.893 2.278 4.847 2.534 9.056-.215.027-.45.054-.703.08-1.953.205-4.62.337-7.33.366-2.714.03-5.366-.046-7.3-.233zm-2.138-.345h.003l-.005-.001h.002z" fill="#2364AF"></path>
  <path d="M43 5.55H31c-.773 0-1.4-1.035-1.4-2.312 0-1.278.627-2.313 1.4-2.313h12c.773 0 1.4 1.035 1.4 2.313 0 1.277-.627 2.312-1.4 2.312z" fill="#2364AF"></path>
</symbol></defs>
                            <use xlink:href="#icon_scheme-step-2"></use>
                        </svg>