<svg xmlns:xlink="http://www.w3.org/1999/xlink" xmlns="http://www.w3.org/2000/svg" class="not-found-top__icon" width="588"  height="259" ><defs><symbol fill="none" viewBox="0 0 588 259" id="icon_404"><path d="M154.746 159.446h28.402v40.033h-28.402v54.123H105v-54.123H2.238L0 168.209 104.484 3.436h50.262v156.01zm-105.172 0H105V71.132l-3.27 5.67-52.156 82.644zM378.689 150.168c0 34.592-7.173 61.052-21.517 79.379-14.344 18.327-35.344 27.491-63 27.491-27.311 0-48.197-8.992-62.656-26.975-14.459-17.984-21.86-43.756-22.205-77.318v-46.047c0-34.936 7.23-61.453 21.689-79.551C245.574 9.049 266.516 0 293.828 0c27.311 0 48.197 8.992 62.656 26.975 14.459 17.87 21.86 43.584 22.205 77.146v46.047zm-49.746-50.514c0-20.733-2.869-35.795-8.607-45.188-5.623-9.507-14.459-14.26-26.508-14.26-11.705 0-20.369 4.524-25.992 13.573-5.508 8.934-8.434 22.966-8.779 42.095v60.823c0 20.389 2.754 35.566 8.263 45.531 5.623 9.851 14.573 14.777 26.852 14.777 12.164 0 20.943-4.754 26.336-14.261 5.394-9.507 8.205-24.055 8.435-43.642V99.654zM559.598 159.446H588v40.033h-28.402v54.123h-49.746v-54.123H407.09l-2.238-31.27L509.336 3.436h50.262v156.01zm-105.172 0h55.426V71.132l-3.27 5.67-52.156 82.644z" fill="#FCCF8A"></path><path d="M335.48 4.905h60.937v251.152h-73.714v-2.932l-3.931-75.553L335.48 4.905z" fill="#F4F5F9"></path><path d="M313.715 238.606s1.443 2.114.258 3.92c-1.185 1.805-1.546 2.629-2.01 4.125-.463 1.495-.927 2.578-2.009 3.249-1.081.67-3.554 1.856-3.811 2.785-.258.928-.465 4.383 0 4.796.463.413 3.606 1.391 6.284 1.289 2.679-.103 7.573-2.372 9.479-2.939 1.905-.567 3.347-1.959 3.399-2.681.051-.721.001-2.837.412-3.971.412-1.135.516-2.217.309-3.455-.205-1.237-.309-2.964-.567-4.499-.258-1.536-.515-2.978-.515-2.978l-11.229.359zM334.32 239.019s.773 3.404 0 5.26c-.773 1.856-1.39 3.403-1.184 4.537.205 1.135.405 3.919.744 4.073.338.155 2.5 1.392 3.995 1.392h2.473s.103 2.425.721 2.681c.618.258 3.504 1.29 5.513 1.495 2.009.207 7.212.479 8.19.317.979-.162.824-4.081.412-5.318-.412-1.238-4.327-3.602-5.924-4.946-1.597-1.345-2.414-4.314-2.885-5.832-.472-1.516-.618-2.784-.67-2.989-.051-.206-11.385-.67-11.385-.67z" fill="#2364AF"></path><path d="M306.941 124.929s-1.88 18.227-1.262 25.446c.619 7.219 4.122 27.846 3.916 30.939-.206 3.094.02 13.248.422 14.898.403 1.651 1.165 43.474 1.165 43.474h15.576s-.269-4.744.144-8.043c.413-3.3-.206-6.806 0-11.138.207-4.332-1.235-31.352-1.029-35.89.206-4.538 1.028-7.012 1.029-10.312.002-3.301 2.886-22.581 2.886-22.581s2.887 20.105 3.297 22.581c.412 2.475.617 8.664 1.03 11.757.412 3.094 1.443 3.713.824 8.869-.617 5.157-1.442 7.425-2.06 10.725-.619 3.3-1.184 10.933-1.004 13.407.179 2.476-.797 6.6 0 8.251.796 1.65.233 8.869 0 9.9-.233 1.032 0 3.92 0 3.92s6.978.207 9.658 0a26.687 26.687 0 014.945.092s2.061-19.069 2.267-24.019c.205-4.95 3.604-23.32 4.016-26.208.412-2.888.518-20.408 1.753-34.228 1.237-13.818 1.328-17.225 0-22.895-1.225-5.234-.928-11.961-.928-11.961l-46.645 3.016zM276.264 86.912s-2.221 0-3.399-.58-5.719-4.312-7.419-4.64c-1.7-.33-2.53-1.044-4.172-2.01-1.642-.968-3.284-2.186-3.767-2.206-.483-.02-1.68 0-1.989.33-.309.328-.696 1.314-.309 1.7.386.387 3.728 2.707 4.307 3.075.579.368 1.932.89 2.184 1.528.25.638.463 1.18.211 1.586-.25.406-1.294.193-2.26.038-.965-.155-1.95-.31-2.665-.349-.714-.038-2.26-.077-2.473.02-.213.096-.831.6-.888.87-.059.271 4.636 5.82 5.796 6.42 1.16.6 2.993 1.257 4.23 1.373 1.237.115 5.66.386 7.496.406 1.836.02 5.814.722 6.51.78.696.057-1.393-8.34-1.393-8.34zM387.793 84.63l.136-.077c.83-.466 5.191-2.914 6.122-3.403 1.03-.542 2.422-.928 3.94-.928 1.521 0 3.786-.18 4.456-.516.669-.335 2.267-1.186 2.963-1.47.695-.284 2.91-.335 3.09-.257.18.077.928.541.928.825 0 .284.488.593-.438 1.237-.927.645-2.24 1.367-2.447 1.6-.205.23-.412.823-.412 1.03 0 .206-.076.618.129.413.206-.207 1.031-.799 1.623-.942.592-.142 1.03-.992 1.236.116.206 1.109-1.365 3.945-1.545 4.203-.181.258-1.623.85-2.37 1.006-.747.155-2.113.877-2.782 1.47-.67.593-5.228 2.475-6.207 2.63-.978.155-3.504.464-3.735.618-.232.155-1.081 1.031-1.673 1.135-.594.102-2.68-.104-3.014-.31-.336-.206-1.855-2.192-1.855-2.811 0-.62.438-3.61.464-3.687.026-.076 1.391-1.882 1.391-1.882z" fill="#2364AF"></path><path d="M321.391 8.984s-5.023 2.398-5.873 3.713c-.851 1.314-1.932 3.79-1.469 6.343.464 2.552 1.16 6.652 1.777 7.89.618 1.236-.155 2.01-.155 2.01s1.357 5.183 1.992 5.725c.635.541 1.872.773 1.872.773s.927 1.779 1.314 3.016c.386 1.237-1.16 2.011-2.551 2.553-1.39.541-6.954 1.701-9.272 2.088-2.318.386-4.019 1.47-5.177 3.17-1.16 1.703-3.632 7.195-4.25 9.824-.618 2.63-.85 4.718-2.087 6.961-1.236 2.243-1.7 4.565-1.7 4.565s0 4.254-.773 6.806c-.773 2.552-2.163 7.27-2.163 7.27s-7.263 2.09-9.814 3.171c-2.549 1.084-7.804 1.548-7.804 1.548s3.709 8.082 1.16 8.198c-1.151.052-1.7 0-1.7 0s-2.06 2.45 10.662 2.165c9.966-.222 14.065-1.933 14.606-2.32.54-.387 4.559-5.647 5.332-7.503.772-1.856 1.853-3.944 1.853-3.944s-1.081 31.868-1.159 34.111c-.077 2.243.386 8.353.464 8.74.077.386 12.179 1.978 25.398 3.093 10.996.928 23.823-3.171 23.823-3.171s2.396-8.74.929-14.232c-1.47-5.492-1.391-21.968-1.701-25.835-.309-3.868.617-9.514.617-9.514s2.863 13.387 6.492 15.6c5.666 3.454 19.123 2.384 20.592 2.538 1.469.155 5.602.58 5.602.58s.49-1.418.181-2.733c-.309-1.315-.876-7.477-.876-7.477s0 .813-6.106-.889a156.3 156.3 0 00-11.666-2.746c-.541-4.951-2.138-14.206-3.297-18.77-1.16-4.564-3.889-13.484-3.889-13.484-1.082-1.238-4.292-5.172-15.032-7.492-2.474-.536-6.758-.862-8.458-2.796-1.7-1.934-1.314-5.182-1.16-6.342.154-1.16.077-1.392.696-1.934.617-.541 1.391-2.32 1.313-4.099-.076-1.779-.308-3.635-.772-3.635s-1.005-.078-1.005-.078-1.159-3.945-2.087-6.11c-.927-2.166-3.012-7.503-7.185-7.812-4.171-.308-7.494.465-7.494.465z" fill="#2364AF"></path><path d="M294.573 121.645l-.01-27.544-1.571.005-1.512.008-.008-1.727-7.26.042.013 1.726-3.078.022-2.731 3.081-2.794-11.515-23.848.134-2.666 11.545-2.763-3.042-2.858.016-.01-1.734-7.254.047.002 1.728-3.297.016V132.616h61.649v-10.972h-.004v.001zm-41.314-32.766l20.907-.117 1.563 14.556-23.503.131 1.033-14.57z" fill="#2364AF"></path></symbol></defs>
                        <use xlink:href="#icon_404"></use>
                    </svg>