<svg xmlns:xlink="http://www.w3.org/1999/xlink" xmlns="http://www.w3.org/2000/svg" class="repairs__icon" width="30"  height="30" ><defs><symbol viewBox="0 0 30 30" id="icon_dishwasher"><path fill-rule="evenodd" clip-rule="evenodd" d="M27 3H3v13.333h2.667A5.333 5.333 0 0115 12.806a5.333 5.333 0 019.333 3.528H27V3zm-5.333 13.333a2.667 2.667 0 10-5.334 0h5.334zm-8 0a2.667 2.667 0 10-5.334 0h5.334zM27 25.667V19H3v6.667h24zM3 .333A2.667 2.667 0 00.333 3v22.667A2.667 2.667 0 003 28.333h1.333c0 .737.597 1.334 1.334 1.334h18.666c.737 0 1.334-.597 1.334-1.334H27a2.667 2.667 0 002.667-2.666V3A2.667 2.667 0 0027 .333H3zm16 5.334h-8v2.666h8V5.667zm-8 14.666h8V23h-8v-2.667zM9.667 7A1.333 1.333 0 117 7a1.333 1.333 0 012.667 0zm12 1.333a1.333 1.333 0 100-2.666 1.333 1.333 0 000 2.666z"></path></symbol></defs>
                                <use xlink:href="#icon_dishwasher" fill="#2364AF"></use>
                            </svg>