<svg xmlns:xlink="http://www.w3.org/1999/xlink" xmlns="http://www.w3.org/2000/svg" class="repairs__icon" width="30"  height="30" ><defs><symbol viewBox="0 0 18 24" id="icon_fridge">
  <path fill-rule="evenodd" clip-rule="evenodd" d="M16 2H2v5h14V2zm0 7H2v12h14V9zM2 0a2 2 0 00-2 2v19a2 2 0 002 2h2a1 1 0 001 1h2a1 1 0 001-1h3a1 1 0 001 1h2a1 1 0 001-1h1a2 2 0 002-2V2a2 2 0 00-2-2H2zm2 4a1 1 0 012 0v1a1 1 0 01-2 0V4zm4 8a1 1 0 00-1-1H5a1 1 0 100 2h2a1 1 0 001-1z"></path>
</symbol></defs>
                                <use xlink:href="#icon_fridge" fill="#2364AF"></use>
                            </svg>