<svg xmlns:xlink="http://www.w3.org/1999/xlink" xmlns="http://www.w3.org/2000/svg" class="repairs__icon" width="30"  height="32" ><defs><symbol viewBox="0 0 30 32" id="icon_electric-stoves"><path fill-rule="evenodd" clip-rule="evenodd" d="M5.667 2.667H2.333a2 2 0 00-2 2v24a2 2 0 002 2h3.334V31a1 1 0 001 1h4.666a1 1 0 001-1v-.333h5.334V31a1 1 0 001 1h4.666a1 1 0 001-1v-.333h3.334a2 2 0 002-2v-24a2 2 0 00-2-2h-3.334V1a1 1 0 00-1-1h-4.666a1 1 0 00-1 1v1.667h-5.334V1a1 1 0 00-1-1H6.667a1 1 0 00-1 1v1.667zm12.057 2h-5.447a1 1 0 01-.944.666H6.667a1 1 0 01-.943-.666h-3.39v24h3.39A1 1 0 016.667 28h4.666a1 1 0 01.944.667h5.447a1 1 0 01.943-.667h4.666a1 1 0 01.944.667h3.39v-24h-3.39a1 1 0 01-.944.666h-4.666a1 1 0 01-.943-.666zM7.667 16h14.666v7.333H7.667V16zm-2.334-2.667h19.334a1 1 0 011 1V15a1 1 0 01-1 1h-.334v7.333a2 2 0 01-2 2H7.667a2 2 0 01-2-2V16h-.334a1 1 0 01-1-1v-.667a1 1 0 011-1zm3-5.333a1.333 1.333 0 11-2.666 0 1.333 1.333 0 012.666 0zm4 1.333a1.333 1.333 0 100-2.666 1.333 1.333 0 000 2.666zM19 8a1.333 1.333 0 11-2.667 0A1.333 1.333 0 0119 8zm4 1.333a1.333 1.333 0 100-2.666 1.333 1.333 0 000 2.666z"></path></symbol></defs>
                                <use xlink:href="#icon_electric-stoves" fill="#2364AF"></use>
                            </svg>