<svg xmlns:xlink="http://www.w3.org/1999/xlink" xmlns="http://www.w3.org/2000/svg" class="repairs__icon" width="32"  height="26" ><defs><symbol viewBox="0 0 32 26" id="icon_conditioners"><path fill-rule="evenodd" clip-rule="evenodd" d="M2.667 2.667h26.666v18.666H13.078c.07-.02.135-.042.198-.065.692-.253 1.463-.788 2.334-1.659 1.35-1.35 1.126-3.074.646-4.284a7.86 7.86 0 00-.713-1.362h5.009l.39-.39c.665-.664.554-1.6.326-2.22-.253-.69-.788-1.462-1.659-2.333-1.35-1.35-3.074-1.126-4.284-.646-.736.292-1.423.722-1.992 1.158V3.56l-.39-.39c-.664-.664-1.6-.553-2.22-.326-.69.254-1.462.789-2.332 1.66-1.35 1.35-1.127 3.073-.647 4.284a8.413 8.413 0 001.073 1.879H3.56l-.39.39c-.664.664-.553 1.6-.326 2.22.254.69.789 1.462 1.66 2.333 1.35 1.35 3.073 1.126 4.284.646a8.413 8.413 0 001.879-1.073v5.369l.39.39c.187.187.394.313.61.391h-9V2.667zM2.78 24h-.113A2.667 2.667 0 010 21.333V2.667A2.667 2.667 0 012.667 0h26.666A2.667 2.667 0 0132 2.667v18.666A2.667 2.667 0 0129.333 24h-.113a2 2 0 01-1.887 1.333H22A2 2 0 0120.114 24h-8.228A2 2 0 0110 25.333H4.667A2 2 0 012.78 24zm19.887-12c0-.736.597-1.333 1.333-1.333h2.667a1.333 1.333 0 010 2.666H24A1.333 1.333 0 0122.667 12zM24 14.667a1.333 1.333 0 100 2.666h2.667a1.333 1.333 0 000-2.666H24zM22.667 8c0-.736.597-1.333 1.333-1.333h2.667a1.333 1.333 0 010 2.666H24A1.333 1.333 0 0122.667 8zm-12-1.98c-.12.106-.25.228-.39.369-.25.25-.363.637-.054 1.415.114.288.27.577.444.851V6.019zm-4.278 7.704c-.14-.14-.263-.27-.37-.39h2.636c-.274.174-.563.33-.85.443-.78.31-1.166.197-1.416-.053zm6.944 4.37c.12-.107.25-.23.391-.37.25-.25.362-.637.053-1.416a5.137 5.137 0 00-.444-.85v2.635zm4.39-7.188c.141.14.264.27.37.39h-2.635c.274-.174.563-.33.85-.444.779-.308 1.166-.196 1.416.054z"></path></symbol></defs>
                                <use xlink:href="#icon_conditioners" fill="#2364AF"></use>
                            </svg>