<svg xmlns:xlink="http://www.w3.org/1999/xlink" xmlns="http://www.w3.org/2000/svg" class="repairs__icon" width="30"  height="30" ><defs><symbol viewBox="0 0 30 30" id="icon_washing-machine">
  <path fill-rule="evenodd" clip-rule="evenodd" d="M3 3h24v22.667H3V3zM.333 3A2.667 2.667 0 013 .333h24A2.667 2.667 0 0129.667 3v22.667A2.667 2.667 0 0127 28.333h-1.333c0 .737-.597 1.334-1.334 1.334H5.667a1.333 1.333 0 01-1.334-1.334H3a2.667 2.667 0 01-2.667-2.666V3zM15 20.333a4 4 0 100-8 4 4 0 000 8zM15 23a6.667 6.667 0 100-13.333A6.667 6.667 0 0015 23zM7 8.333a1.333 1.333 0 100-2.666 1.333 1.333 0 000 2.666zM12.333 7a1.333 1.333 0 11-2.666 0 1.333 1.333 0 012.666 0zM23 8.333a1.333 1.333 0 100-2.666 1.333 1.333 0 000 2.666z"></path>
</symbol></defs>
                                <use xlink:href="#icon_washing-machine" fill="#2364AF"></use>
                            </svg>