<svg xmlns:xlink="http://www.w3.org/1999/xlink" xmlns="http://www.w3.org/2000/svg" class="repairs__icon" width="30"  height="30" ><defs><symbol viewBox="0 0 30 30" id="icon_dryers"><path fill-rule="evenodd" clip-rule="evenodd" d="M3 3h24v22.667H3V3zm1.333 25.333H3a2.667 2.667 0 01-2.667-2.666V3A2.667 2.667 0 013 .333h24A2.667 2.667 0 0129.667 3v22.667A2.667 2.667 0 0127 28.333h-1.333c0 .737-.597 1.334-1.334 1.334H5.667a1.333 1.333 0 01-1.334-1.334zM7 7a1.333 1.333 0 100-2.667A1.333 1.333 0 007 7zm17.333-1.333a1.333 1.333 0 11-2.666 0 1.333 1.333 0 012.666 0zm-1.342 9.715zm-.017.273zm-15.972-.482v-.008a8.273 8.273 0 010 .008zM15 24.333a9.333 9.333 0 100-18.666 9.333 9.333 0 000 18.666zm3.293-3.18c-.164.119-.334.232-.508.337a7.077 7.077 0 004.266-6.09l-.04-.417a2.28 2.28 0 01-.009-.11v-.011a1.143 1.143 0 00-.015-.142l-.058-.292-.014-.069a4.469 4.469 0 01-.03-.158l-.002-.008v-.004c-.014-.076-.027-.147-.044-.216l-.12-.392-.017-.057c-.172-.518-.465-1.29-1.019-2.04l-.003-.005a7.488 7.488 0 00-2.14-1.997 7.396 7.396 0 00-3.243-1.03c-.064-.008-.143-.007-.228-.005h-.007c-.063 0-.13.001-.2-.001l-.238-.004h-.015a.778.778 0 00-.152.004l-.014.002c-.11.013-.218.023-.323.032a3.578 3.578 0 00-.641.092c-.514.08-1.059.262-1.766.59l-.44.235c-.065.036-.137.086-.214.139-.059.04-.119.083-.184.124l-.19.124-.177.146c-.059.05-.118.097-.174.142-.075.06-.145.115-.205.172l-.004.003a7.614 7.614 0 00-1.24 1.514 7.44 7.44 0 00-.75 1.795 7.274 7.274 0 00-.195 1.612c.034 1.47.52 2.83 1.323 3.946.378.473.777.872 1.188 1.188l.004.003c.057.045.125.089.197.135.057.038.117.077.178.12l.168.117.18.095c.067.033.128.068.186.101.069.04.134.076.192.101.142.058.283.117.42.177.474.168 1.032.342 1.59.375a2.789 2.789 0 00.544.03h.006c.098-.002.2-.002.303.002h.019c.024.003.058 0 .105-.007a.305.305 0 01.02-.002l.204-.023a2.92 2.92 0 01.183-.017h.006c.067-.005.13-.009.174-.02a6.197 6.197 0 002.607-1.093 5.981 5.981 0 001.55-1.735l.004-.005c.354-.581.517-1.145.63-1.62.022-.121.047-.24.074-.356.006-.042.01-.089.014-.138v-.003c.003-.047.006-.097.013-.149l.03-.275.002-.005a.67.67 0 00-.001-.075 9.648 9.648 0 010-.509 10.37 10.37 0 01-.045-.4c-.004-.036-.006-.07-.008-.1v-.004a.633.633 0 00-.007-.072l-.001-.005-.06-.267a2.657 2.657 0 01-.028-.144v-.002a1.645 1.645 0 00-.027-.132 9.402 9.402 0 01-.11-.338c-.156-.442-.368-.962-.758-1.47l-.004-.005a5.459 5.459 0 00-1.575-1.431 5.406 5.406 0 00-2.36-.708.935.935 0 00-.128 0 2.138 2.138 0 01-.176.004l-.173-.002h-.025a.27.27 0 00-.078.004c-.1.016-.195.025-.287.033h-.002a1.94 1.94 0 00-.367.057.456.456 0 01-.064.015c-.43.069-.86.258-1.232.434a6.648 6.648 0 01-.325.179c-.033.019-.075.05-.12.083a2.552 2.552 0 01-.155.108l-.126.083-.114.1a2.88 2.88 0 01-.148.124l-.001.001c-.046.037-.09.072-.123.104l-.004.005c-.304.29-.585.646-.861 1.087-.203.357-.367.77-.502 1.264-.084.377-.12.804-.113 1.341.058.524.146.934.275 1.289.187.447.39.814.618 1.119.304.369.597.656.896.878l.006.005c.029.021.069.046.112.071l.001.001c.047.028.1.06.154.1l.104.07.113.054c.06.028.113.057.159.084h.001c.037.021.072.041.095.05.103.037.204.077.302.12.38.12.722.218 1.056.225.027 0 .053.003.078.008.07.013.166.01.268.006.081-.003.174-.007.27-.002h.013l.016-.002a.568.568 0 01.03-.005l.14-.02c.06-.01.116-.014.16-.017.026-.002.06-.004.072-.007a4.147 4.147 0 001.728-.766c.393-.308.735-.711.99-1.165l.005-.008c.214-.363.303-.716.374-1.047.012-.082.028-.163.046-.24l.002-.051V16.213a3.17 3.17 0 01.025-.305l-.001-.011v-.001a3.468 3.468 0 01-.01-.358 3.456 3.456 0 01-.046-.355V15.173a3.245 3.245 0 01-.082-.343 2.99 2.99 0 01-.081-.222c-.116-.296-.251-.609-.493-.9l-.007-.008a3.465 3.465 0 00-1.009-.869 3.362 3.362 0 00-1.494-.384h-.005l-.011.002c-.037.004-.082.009-.135.008a2.619 2.619 0 01-.129 0h-.011c-.084.02-.161.028-.23.035h-.002a.768.768 0 00-.147.025.47.47 0 01-.098.028c-.21.034-.425.14-.653.253h-.001l-.04.02a2.125 2.125 0 01-.206.122 1.246 1.246 0 01-.155.121c-.021.015-.043.03-.066.044l-.043.044a1.345 1.345 0 01-.124.11l-.001.002a.711.711 0 00-.043.037l-.006.006c-.203.21-.366.462-.485.662-.123.24-.198.502-.255.73-.04.232-.04.48-.032.757.043.24.094.488.18.702.101.201.216.411.361.592.149.157.325.332.515.46l.004.003.015.008.013.006c.038.019.088.044.143.082l.024.016.049.02c.06.021.106.047.138.065h.001l.005.003c.06.016.118.035.174.057l.085.02c.163.039.304.072.424.064.04-.003.079-.001.118.006.012 0 .032-.003.05-.005h.006a1.36 1.36 0 01.185-.013 1.41 1.41 0 01.217-.037 2.16 2.16 0 00.814-.422c.222-.199.36-.43.436-.59l.008-.015c.074-.14.096-.284.116-.424l.007-.046a2.16 2.16 0 00-.002-.395 1.136 1.136 0 01-.005-.078 2.004 2.004 0 01-.016-.124 1.702 1.702 0 01-.014-.058l-.013-.06a1.602 1.602 0 01-.029-.08 1.078 1.078 0 00-.164-.303l-.007-.008a1.21 1.21 0 00-.349-.302 1.168 1.168 0 00-.494-.133.708.708 0 01-.077.005h-.039c-.037.007-.069.01-.094.014l-.018.002a.459.459 0 01-.073.018c-.05.008-.125.045-.205.085h-.002a1.179 1.179 0 01-.07.043.747.747 0 01-.066.05l-.009.005c-.029.03-.056.052-.073.066l-.003.002c-.063.067-.118.151-.16.221a1.26 1.26 0 00-.081.237c-.01.069-.01.148-.009.242.017.09.033.161.054.217.033.064.07.133.113.187.048.05.102.105.156.143a.754.754 0 01.07.04c.024.009.044.018.06.027a.903.903 0 01.051.017l.02.005h.003c.036.009.083.02.099.02a.468.468 0 11.066.935.957.957 0 01-.067.003c-.125 0-.23-.026-.317-.046h-.002a4.343 4.343 0 00-.045-.011.474.474 0 01-.08-.026l-.016-.004a.611.611 0 01-.131-.054.47.47 0 01-.117-.057l-.022-.015a.697.697 0 01-.09-.052 2.053 2.053 0 01-.355-.32 2.05 2.05 0 01-.256-.42 2.22 2.22 0 01-.123-.458 2.316 2.316 0 01.024-.583 2.146 2.146 0 01.183-.495c.07-.116.166-.267.3-.406a.8.8 0 01.082-.075l.004-.003.034-.034a.469.469 0 01.088-.07l.013-.008.004-.003.002-.001a.704.704 0 01.12-.085l.012-.007h.002a.271.271 0 00.03-.019.458.458 0 01.06-.035l.03-.014c.114-.057.254-.126.422-.16a.942.942 0 01.184-.036h.005a.292.292 0 00.019-.003.586.586 0 01.175-.016h.023a.689.689 0 01.144-.004c.316.017.613.098.886.243l.006.003c.236.13.453.316.63.538.18.218.27.445.318.569a.618.618 0 00.03.084l.015.039a.824.824 0 01.027.113l.002.006.001.007a.75.75 0 00.013.047c.02.067.023.121.025.15v.003a.884.884 0 00.01.065v.003c.01.043.013.089.01.135a3.113 3.113 0 01-.003.6l-.008.055c-.026.175-.065.44-.211.718a2.852 2.852 0 01-.67.888c-.334.281-.71.48-1.148.605-.087.031-.163.036-.207.039h-.004l-.014.002a.513.513 0 00-.031.007.622.622 0 01-.255.03 1.433 1.433 0 01-.227.018.858.858 0 01-.103-.006 2.41 2.41 0 01-.65-.09 9.649 9.649 0 00-.114-.027.463.463 0 01-.086-.028.487.487 0 00-.11-.034.844.844 0 01-.192-.084l-.016-.008-.017-.007a.655.655 0 00-.052-.02.472.472 0 01-.12-.057l-.08-.054-.004-.003a.453.453 0 00-.02-.01l-.006-.003h-.001a1.056 1.056 0 01-.144-.083 4.204 4.204 0 01-.7-.628 4.23 4.23 0 01-.507-.825 4.529 4.529 0 01-.25-.944.468.468 0 01-.006-.071c-.01-.349-.012-.665.048-.998a4.374 4.374 0 01.363-1.019c.146-.243.348-.558.62-.84a1.31 1.31 0 01.133-.12.78.78 0 00.043-.038l.008-.008.084-.084a.47.47 0 01.088-.07 1.188 1.188 0 00.091-.06l.032-.027a1.08 1.08 0 01.18-.128l.015-.009c.05-.024.096-.052.143-.085a.484.484 0 01.06-.035l.069-.034c.255-.126.542-.267.87-.33.126-.043.243-.056.34-.067.046-.005.09-.01.123-.017a.762.762 0 01.254-.024 1.374 1.374 0 00.105 0l.038-.005h.002c.053-.006.13-.014.22-.005.65.031 1.263.198 1.823.495l.006.004c.481.266.927.647 1.29 1.104.333.402.509.813.648 1.167a1.296 1.296 0 01.135.433l.008.043.005.02a2.2 2.2 0 00.04.147v.003a.85.85 0 01.033.208v.012l.002.014v.005c.016.147.034.228.034.229a.467.467 0 01.01.151 2.375 2.375 0 00.004.24l.002.015a.87.87 0 010 .21v.004a2.158 2.158 0 00-.016.153l-.002.02v.02l-.001.028c-.001.05-.003.117-.015.192a2.32 2.32 0 00-.052.268c-.083.39-.196.848-.482 1.335a4.89 4.89 0 01-1.231 1.443l-.006.004a5.075 5.075 0 01-2.062.929c-.093.024-.179.03-.243.034h-.008c-.025.003-.05.004-.064.007l-.014.002-.133.019a.947.947 0 01-.259.017c-.053-.002-.115 0-.18.003h-.01a4.38 4.38 0 01-.162.004c-.084 0-.172-.004-.265-.019-.451-.015-.875-.139-1.306-.276a.434.434 0 01-.048-.018 3.545 3.545 0 00-.265-.104l-.012-.004a1.614 1.614 0 01-.227-.112l-.002-.001-.002-.002a1.107 1.107 0 00-.086-.046l-.009-.004-.15-.072a.472.472 0 01-.063-.036l-.137-.094-.008-.006a1.566 1.566 0 00-.099-.062 2.094 2.094 0 01-.193-.128 6.067 6.067 0 01-1.079-1.058 6.084 6.084 0 01-.751-1.358c-.16-.435-.266-.924-.333-1.54a.476.476 0 01-.003-.044c-.01-.63.034-1.136.139-1.595l.004-.02c.157-.578.354-1.07.6-1.5l.009-.015a6.5 6.5 0 011.01-1.274c.066-.065.133-.118.191-.165l.002-.002c.039-.03.075-.06.104-.086l.008-.007.142-.125a.477.477 0 01.052-.04l.157-.103.008-.005c.03-.018.064-.044.1-.071l.002-.001c.066-.049.141-.104.232-.154l.01-.005a5.674 5.674 0 00.339-.186c.426-.202.926-.424 1.475-.517.184-.052.361-.069.519-.084a3.95 3.95 0 00.223-.025c.085-.016.174-.021.276-.016l.168.001h.014c.029.002.067 0 .107-.002.079-.003.174-.008.277.004a6.347 6.347 0 012.725.83l.004.002a6.404 6.404 0 011.85 1.677c.474.618.73 1.253.9 1.737a2.245 2.245 0 01.172.607l.018.097.001.006.06.269c.02.088.025.166.029.223v.003c0 .018.002.037.003.045l.002.02c.023.236.042.375.045.396v.003c.004.025.005.05.005.074v.02a7.755 7.755 0 00-.003.41v.01l.001.04v.01c.003.058.006.136-.004.226l-.032.277v.006a2.267 2.267 0 00-.009.102 2.376 2.376 0 01-.032.271 8.546 8.546 0 00-.076.363c-.122.518-.316 1.201-.743 1.901a6.925 6.925 0 01-1.797 2.009l-.003.002z"></path></symbol></defs>
                                <use xlink:href="#icon_dryers" fill="#2364AF"></use>
                            </svg>