<svg xmlns:xlink="http://www.w3.org/1999/xlink" xmlns="http://www.w3.org/2000/svg" class="repairs__icon" width="30"  height="30" ><defs><symbol viewBox="0 0 30 30" id="icon_ovens">
  <path fill-rule="evenodd" clip-rule="evenodd" d="M27 3H3v22.667h24V3zm-2.667 25.333H27a2.667 2.667 0 002.667-2.666V3A2.667 2.667 0 0027 .333H3A2.667 2.667 0 00.333 3v22.667A2.667 2.667 0 003 28.333h2.667c0 .737.597 1.334 1.333 1.334h4c.736 0 1.333-.597 1.333-1.334h5.334c0 .737.596 1.334 1.333 1.334h4c.736 0 1.333-.597 1.333-1.334zm-16-22.666a1.333 1.333 0 11-2.666 0 1.333 1.333 0 012.666 0zm4 1.333a1.333 1.333 0 100-2.667 1.333 1.333 0 000 2.667zM19 5.667a1.333 1.333 0 11-2.667 0 1.333 1.333 0 012.667 0zM23 7a1.333 1.333 0 100-2.667A1.333 1.333 0 0023 7zm0 4H7v9.333h16V11zM7 8.333A2.667 2.667 0 004.333 11v9.333A2.667 2.667 0 007 23h16a2.667 2.667 0 002.667-2.667V11A2.667 2.667 0 0023 8.333H7zM9.667 15a1.333 1.333 0 110-2.667h10.666a1.333 1.333 0 010 2.667H9.667z"></path>
</symbol></defs>
                                <use xlink:href="#icon_ovens" fill="#2364AF"></use>
                            </svg>