<svg xmlns:xlink="http://www.w3.org/1999/xlink" xmlns="http://www.w3.org/2000/svg" class="repairs__icon" width="24"  height="32" ><defs><symbol viewBox="0 0 24 32" id="icon_freezers">
  <path fill-rule="evenodd" clip-rule="evenodd" d="M21.333 2.667H2.667V28h18.666V2.667zm-6.666 28c0 .736.597 1.333 1.333 1.333h2.667c.736 0 1.333-.597 1.333-1.333h1.333A2.667 2.667 0 0024 28V2.667A2.667 2.667 0 0021.333 0H2.667A2.667 2.667 0 000 2.667V28a2.667 2.667 0 002.667 2.667H4C4 31.403 4.597 32 5.333 32H8c.736 0 1.333-.597 1.333-1.333h5.334zm-2.641-20c.469 0 .848.364.848.815V12.628l.075-.041.325-.18a.868.868 0 011.16.296.797.797 0 01-.31 1.113l-1.25.696v2.067l1.81-1.018a27.285 27.285 0 01.004-1.232l.003-.148.001-.04v-.014l.845.017-.844-.018a.84.84 0 01.867-.8c.466.009.833.384.82.836v.049l-.004.14-.005.261 1.032-.58a.855.855 0 011.152.297.809.809 0 01-.313 1.12l-1.02.573.418.237c.4.228.534.73.296 1.12a.862.862 0 01-1.156.295l-1.241-.705L13.705 18l1.766.993a29.568 29.568 0 011.099-.613l.132-.07.037-.02.01-.005.002-.001h.001l.406.72-.406-.72a.86.86 0 011.146.33.804.804 0 01-.334 1.11l-.002.002-.009.004-.033.018-.127.067-.234.127 1.031.58a.809.809 0 01.313 1.12.855.855 0 01-1.152.296l-1.02-.573-.002.47a.826.826 0 01-.848.81.838.838 0 01-.84-.827l.006-1.4-1.773-.996v1.816a29.39 29.39 0 011.097.622l.13.076.034.021.01.006.002.001h.001l-.449.692.45-.691a.796.796 0 01.27 1.123.87.87 0 01-1.17.26l-.002-.002-.008-.005-.033-.02-.123-.072a34.468 34.468 0 00-.209-.122v1.391c0 .45-.38.815-.848.815-.469 0-.849-.364-.849-.814v-1.38l-.074.041-.325.181a.868.868 0 01-1.16-.296.797.797 0 01.309-1.114l1.25-.696v-1.833l-1.602.9a27.729 27.729 0 01-.004 1.233l-.003.147-.002.04v.015l-.844-.018.844.018a.84.84 0 01-.867.801.824.824 0 01-.82-.836v-.05l.004-.14.005-.26-1.239.695a.855.855 0 01-1.152-.296.81.81 0 01.313-1.12l1.226-.69-.417-.236a.803.803 0 01-.297-1.12.862.862 0 011.157-.296l1.241.706L10.347 18l-1.663-.935a29.756 29.756 0 01-1.099.613l-.132.07-.036.02-.01.005-.003.001-.407-.72.406.72a.86.86 0 01-1.146-.33.804.804 0 01.334-1.11l.003-.002.008-.004.034-.018.126-.067.234-.127-1.238-.696a.81.81 0 01-.313-1.12.855.855 0 011.152-.296l1.227.69.002-.471a.826.826 0 01.848-.81.838.838 0 01.84.827l-.006 1.4 1.67.939v-2.05a29.413 29.413 0 01-1.097-.621l-.13-.077-.035-.02-.01-.006-.002-.002.448-.692-.449.691a.796.796 0 01-.27-1.122.87.87 0 011.169-.26l.002.001.008.005.033.02.123.072.21.123v-1.159c0-.45.38-.815.848-.815zm-5.36-5.334c-.736 0-1.333.597-1.333 1.334V8A1.333 1.333 0 008 8V6.667c0-.737-.597-1.334-1.333-1.334z"></path>
</symbol></defs>
                                <use xlink:href="#icon_freezers" fill="#2364AF"></use>
                            </svg>