<svg xmlns:xlink="http://www.w3.org/1999/xlink" xmlns="http://www.w3.org/2000/svg" class="review-item__icon" width="22"  height="21" ><defs><symbol viewBox="0 0 22 21" id="icon_fill-star">
  <path d="M10.122.61a1 1 0 011.756 0l2.633 4.828a1 1 0 00.694.504l5.405 1.012a1 1 0 01.543 1.67l-3.778 3.996a1 1 0 00-.265.816l.707 5.454a1 1 0 01-1.42 1.032l-4.968-2.358a1 1 0 00-.858 0l-4.968 2.358a1 1 0 01-1.42-1.032l.707-5.454a1 1 0 00-.265-.816L.847 8.624a1 1 0 01.543-1.67l5.405-1.012a1 1 0 00.694-.504L10.122.61z"></path>
</symbol></defs>
                                        <use xlink:href="#icon_fill-star" fill="#51B2C0"></use>
                                    </svg>