<svg xmlns:xlink="http://www.w3.org/1999/xlink" xmlns="http://www.w3.org/2000/svg" class="percentage-reviews__icon" width="56"  height="56" ><defs><symbol fill="none" viewBox="0 0 56 56" id="icon_like-color">
  <path fill="#FCCF8A" d="M5 26h12v28H5z"></path>
  <path d="M51.353 34.672a4.904 4.904 0 001.256-3.281 4.928 4.928 0 00-4.922-4.922h-9.552c.946-2.871 1.35-6.68 1.35-8.314v-1.64a6.57 6.57 0 00-6.563-6.562h-1.64a1.64 1.64 0 00-1.592 1.243l-.894 3.575c-1.252 5.007-5.228 10.532-9.343 11.536a4.928 4.928 0 00-4.578-3.12H5.031c-.905 0-1.64.735-1.64 1.641V54.36c0 .906.735 1.641 1.64 1.641h9.844a4.927 4.927 0 004.443-2.806l5.637 1.88c1.843.614 3.764.926 5.707.926h13.744a4.928 4.928 0 004.577-6.735 4.931 4.931 0 003.626-4.75c0-1.258-.475-2.409-1.256-3.28a4.904 4.904 0 001.256-3.282c0-1.259-.475-2.41-1.256-3.281zM16.516 51.078c0 .905-.736 1.64-1.641 1.64H6.672v-26.25h8.203c.905 0 1.64.737 1.64 1.641v22.97zm27.89-14.766h3.282c.904 0 1.64.737 1.64 1.641 0 .905-.736 1.64-1.64 1.64h-3.282a1.641 1.641 0 000 3.282h3.282c.904 0 1.64.736 1.64 1.64 0 .905-.736 1.641-1.64 1.641h-3.282a1.641 1.641 0 000 3.282c.905 0 1.64.736 1.64 1.64 0 .905-.735 1.64-1.64 1.64H30.662c-1.59 0-3.162-.254-4.67-.757l-6.195-2.065V29.595c2.573-.49 5.092-2.119 7.366-4.787 2.22-2.605 4.02-6.059 4.816-9.24l.583-2.334h.36a3.285 3.285 0 013.281 3.282v1.64c0 2.202-.689 6.427-1.57 8.313H31.28a1.641 1.641 0 000 3.281h16.407c.904 0 1.64.736 1.64 1.64 0 .905-.736 1.641-1.64 1.641h-3.282a1.641 1.641 0 000 3.282z" fill="#2364AF"></path>
  <path d="M11.594 49.438a1.64 1.64 0 100-3.282 1.64 1.64 0 000 3.282zM34.563 0a1.64 1.64 0 00-1.641 1.64v3.391a1.64 1.64 0 103.281 0v-3.39A1.64 1.64 0 0034.563 0zM27.602 7.235l-2.32-2.32a1.64 1.64 0 10-2.32 2.32l2.32 2.32a1.64 1.64 0 002.32-2.32zM46.163 4.915a1.64 1.64 0 00-2.32 0l-2.32 2.32a1.64 1.64 0 002.32 2.32l2.32-2.32c.641-.64.641-1.68 0-2.32z" fill="#2364AF"></path>
</symbol></defs>
                                                <use xlink:href="#icon_like-color"></use>
                                            </svg>